<?xml version="1.0" encoding="UTF-8"?>
<svg id="_TEMPO" data-name=" TEMPO" xmlns="http://www.w3.org/2000/svg" version="1.1" viewBox="0 0 500 500">
  <defs>
    <style>
      .cls-1 {
        fill: #006ec0;
      }

      .cls-1, .cls-2, .cls-3 {
        stroke-width: 0px;
      }

      .cls-2 {
        fill: #00a4e1;
      }

      .cls-3 {
        fill: #fff;
      }
    </style>
  </defs>
  <polygon class="cls-1" points="250.1 500 431.6 448.7 469.1 0 30.9 0 68.4 448.7 250.1 500"/>
  <polygon class="cls-1" points="250.1 500 431.6 448.7 469.1 0 30.9 0 68.4 448.7 250.1 500"/>
  <polygon class="cls-2" points="250.1 39.1 427.4 39.1 395.6 419.8 250.1 460.9 250.1 39.1"/>
  <path class="cls-3" d="M111.7,94.4l.5,6.2,4.2,49.9h110.1l-51.8,26.1-53.8,27.1.2,2.4,4.7,56.1h192.1l-2.1,25.5-3.5,42.5-62.1,17.1-62.6-17.3-3.5-42.3h-56.1l2.2,26.4,5,59.6,38.2,10.5,76.9,21.2,76.8-21.2,38-10.5,5-59.6,2.2-26.5,2.1-25.5,4.7-56.1h-106.4l52.2-26.3,58.1-29.3.7-.4h0s0,0,0,0h0v.4s.2,0,.2,0l4.7-56.1H111.7Z"/>
</svg>