<?xml version="1.0" encoding="UTF-8"?>
<svg id="_TEMPO" xmlns="http://www.w3.org/2000/svg" viewBox="0 0 500 500">
  <defs>
    <style>
      .cls-1 {
        fill: #f05133;
      }
    </style>
  </defs>
  <path class="cls-1"
    d="M490.57,227.73L272.27,9.44c-12.57-12.58-32.96-12.58-45.54,0l-45.33,45.34,57.5,57.5c13.36-4.52,28.69-1.49,39.34,9.17,10.71,10.72,13.72,26.17,9.09,39.59l55.43,55.42c13.41-4.63,28.88-1.63,39.59,9.09,14.96,14.96,14.96,39.21,0,54.19-14.97,14.97-39.22,14.97-54.2,0-11.25-11.26-14.04-27.81-8.33-41.67l-51.69-51.69v136.02c3.65,1.81,7.09,4.21,10.13,7.25,14.96,14.96,14.96,39.21,0,54.19-14.96,14.96-39.23,14.96-54.18,0-14.96-14.99-14.96-39.23,0-54.19,3.7-3.69,7.98-6.49,12.55-8.36v-137.29c-4.57-1.87-8.84-4.64-12.55-8.36-11.33-11.33-14.06-27.97-8.25-41.89l-56.68-56.69L9.43,226.72c-12.58,12.59-12.58,32.97,0,45.55l218.31,218.3c12.57,12.58,32.95,12.58,45.54,0l217.29-217.29c12.58-12.58,12.58-32.97,0-45.55Z" />
</svg>