<?xml version="1.0" encoding="UTF-8"?>
<svg id="Calque_1" data-name="Calque 1" xmlns="http://www.w3.org/2000/svg" version="1.1" viewBox="0 0 500 500">
  <defs>
    <style>
      .cls-1 {
        fill: #99425b;
      }

      .cls-1, .cls-2 {
        stroke-width: 0px;
      }

      .cls-2 {
        fill: #fff;
      }
    </style>
  </defs>
  <path class="cls-1" d="M67.1,263.8c-2.9-5.1-4.6-11.1-4.6-17.4,0-19.4,15.8-35.2,35.2-35.2h0c19.4,0,35.2,15.9,35.2,35.3s-2,13.5-5.6,18.9c-5.8,9.1-15.8,15.4-27.2,16.1h-2.4c-4.3,0-8.5-.8-12.3-2.2-7.7-2.9-14.2-8.5-18.3-15.5Z"/>
  <path class="cls-1" d="M277.7,224.6c1.6,2.1,3,4.3,4.1,6.7,2.1,4.5,3.3,9.6,3.3,14.9s-.3,5.5-1,8.2c-3.4,14.4-15.7,25.3-30.7,26.8-1.2,0-2.4.2-3.5.2-7,0-13.6-2.1-19.1-5.6-9.7-6.3-16.1-17.2-16.1-29.5h0c0-17.7,13-32.4,30-34.9,1.7-.3,3.4-.4,5.2-.4,11.3,0,21.3,5.3,27.8,13.6Z"/>
  <path class="cls-1" d="M288.4,203l36.4-73.6,36.8,75h0c-7.5,7.2-13.1,16.4-15.9,26.8-13-.5-26.8-.5-39.8,0-3-11-9.1-20.8-17.4-28.2Z"/>
  <path class="cls-1" d="M396.7,199.7v.2c-1.2-.2-16.5-.2,0-.2Z"/>
  <path class="cls-1" d="M401.4,210.9c12.1,0,2.2,0,3.3.2,17.9,1.7,31.9,16.7,31.9,35h.1c0,3.6-.5,7-1.5,10.2-2.3,7.6-7.2,14.2-13.6,18.7-5.7,4-12.6,6.3-20.1,6.3-16.2,0-29.9-11.1-34-26.1-.8-2.9-1.2-6-1.2-9.1,0-4.8,1-9.4,2.7-13.6.9-2.2,2-4.2,3.3-6.1,6.3-9.3,17-15.5,29.1-15.5Z"/>
  <path class="cls-1" d="M434.5,293.9c6.5,13.3,8.9,28.3,6.3,43.2h0c-3.4,19.6-15.6,36.8-33.4,47.2-16.6,9.6-36.5,12.5-57.6,15.5-11.3,1.6-23,3.3-34.3,6.1-30.1,7.4-59.3,21.9-87.6,36-56.5,28.1-105.3,52.3-151.3,20.4-33.7-23.4-32.1-66.6-28.2-90.2,3.6-21.9,13.5-42.1,23-61.7,1.6-3.4,3.3-6.7,4.8-10,4.7,1.9,9.7,3.2,15,3.8-9.7,32,5.5,66.7,37.5,83.1l4.4,2.2,4.6-1.6c25.3-9,48.6-23.4,69.2-42.9,13.3-12.6,24.8-26.5,34.3-41.4,2.8.4,5.7.7,8.7.7,29.3,0,53.6-21.9,57.4-50.3,12-.4,24.8-.4,36.8,0,3.8,28.3,28.1,50.3,57.4,50.3s23.6-3.8,33-10.4Z"/>
  <path class="cls-1" d="M261.1,189.3L204.7,22.7h239.9l-56.7,167.1c-2.5.6-4.9,1.3-7.2,2.2l-56-114.2-56.1,113.5c-2.4-.8-4.9-1.5-7.5-2Z"/>
  <path class="cls-2" d="M396.6,199.9v-.2c-16.5,0-1.1,0,0,.2ZM396.6,200c.1,0,.1,0,0,0h0Z"/>
</svg>