<?xml version="1.0" encoding="UTF-8"?>
<svg id="_TEMPO" xmlns="http://www.w3.org/2000/svg" viewBox="0 0 500 500">
  <defs>
    <style>
      .cls-1 {
        fill: #00dafc;
        stroke-width: 0px;
      }
    </style>
  </defs>
  <circle class="cls-1" cx="250" cy="249.59" r="44.65"/>
  <g>
    <path class="cls-1" d="M250.01,351.92c-62.72,0-117.56-7.41-158.58-21.43C35.04,311.23,0,280.23,0,249.58s32.43-58.44,86.75-77.38c44.53-15.52,102.5-24.08,163.25-24.08h0c59.59,0,116.81,8.4,161.09,23.64,55.67,19.17,88.9,48.25,88.9,77.82s-36.25,61.77-94.62,81.09c-41.35,13.71-96.53,21.25-155.37,21.25ZM250.01,169.49c-57.57,0-114.52,8.34-156.23,22.89-50.03,17.44-72.42,41.3-72.42,57.2s24.09,42.63,76.97,60.69c38.83,13.27,91.27,20.3,151.67,20.3,56.61,0,109.41-7.16,148.66-20.17,54.95-18.19,79.97-44.28,79.97-60.82,0-15.4-23.31-40-74.49-57.62-42.11-14.5-96.85-22.47-154.14-22.47Z"/>
    <path class="cls-1" d="M148.76,472.29c-9.02,0-17.13-1.94-24.04-5.93-25.57-14.72-34.43-57.27-23.7-113.79,8.79-46.32,30.35-100.81,60.69-153.44h0c29.78-51.63,65.63-97,100.95-127.74,44.41-38.64,86.21-52.91,111.82-38.14,26.58,15.33,35.38,62.25,22.98,122.48-8.78,42.65-29.81,94.22-59.21,145.21-31.32,54.32-65.14,98.13-97.78,126.67-33.2,29.02-66.12,44.7-91.73,44.7ZM180.23,209.8h0c-28.76,49.87-49.98,103.36-58.21,146.76-9.89,52.06-.41,83.37,13.38,91.3,14.33,8.27,48.96.44,91.04-36.34,30.89-27.01,63.17-68.93,93.33-121.25,28.29-49.06,48.47-98.38,56.79-138.85,11.69-56.7,1.59-91.41-12.73-99.66-13.34-7.66-46.28.2-87.13,35.74-33.59,29.24-67.85,72.67-96.48,122.31Z"/>
    <path class="cls-1" d="M351.37,472.47c-24.19,0-54.93-14.63-86.93-42.16-35.77-30.77-72.21-76.67-102.64-129.21-29.85-51.57-51.25-105.29-60.25-151.27-11.3-57.78-2.78-101.11,22.81-115.93,26.57-15.37,71.61.44,117.58,41.25,32.58,28.93,66.76,72.9,96.24,123.82,31.42,54.28,52.48,105.45,60.89,147.98,11.58,58.45,2.3,104.3-24.21,119.65-6.8,3.93-14.72,5.86-23.5,5.86ZM147.8,49.51c-5.21,0-9.5,1.01-12.73,2.88-13.33,7.72-22.94,40.22-12.54,93.34,8.56,43.72,29.07,95.09,57.77,144.65h0c28.83,49.8,64.57,94.9,98.08,123.74,40.15,34.54,72.04,41.99,85.79,34,14.33-8.29,24.82-42.2,13.96-97.02-7.97-40.24-28.17-89.15-58.43-141.42-28.36-49-61.01-91.1-91.93-118.56-33.51-29.75-62.12-41.62-79.97-41.62Z"/>
  </g>
</svg>