<?xml version="1.0" encoding="UTF-8"?>
<svg id="Calque_1" data-name="Calque 1" xmlns="http://www.w3.org/2000/svg" xmlns:xlink="http://www.w3.org/1999/xlink" version="1.1" viewBox="0 0 338.9 240.5">
  <defs>
    <style>
      .cls-1 {
        fill: #12002b;
      }

      .cls-1, .cls-2, .cls-3, .cls-4, .cls-5, .cls-6, .cls-7, .cls-8, .cls-9, .cls-10, .cls-11, .cls-12, .cls-13, .cls-14, .cls-15, .cls-16, .cls-17, .cls-18, .cls-19 {
        stroke-width: 0px;
      }

      .cls-2 {
        fill: #2a95ed;
      }

      .cls-3 {
        fill: #ebebeb;
      }

      .cls-4 {
        fill: #f99694;
      }

      .cls-5 {
        fill: url(#Dégradé_sans_nom);
      }

      .cls-6 {
        fill: #1d1d1b;
        opacity: .5;
      }

      .cls-6, .cls-20, .cls-21 {
        isolation: isolate;
      }

      .cls-7 {
        fill: #e710ab;
      }

      .cls-8 {
        fill: #ffaeae;
      }

      .cls-9 {
        fill: #81c8f7;
      }

      .cls-10 {
        fill: url(#Dégradé_sans_nom_6);
      }

      .cls-11 {
        fill: url(#Dégradé_sans_nom_7);
      }

      .cls-12 {
        fill: url(#Dégradé_sans_nom_4);
      }

      .cls-13 {
        fill: url(#Dégradé_sans_nom_5);
      }

      .cls-14 {
        fill: url(#Dégradé_sans_nom_2);
      }

      .cls-15 {
        fill: url(#Dégradé_sans_nom_3);
      }

      .cls-22, .cls-20 {
        font-family: Avenir-Medium, Avenir;
        font-size: 12px;
        font-weight: 500;
        letter-spacing: 0em;
      }

      .cls-22, .cls-20, .cls-19 {
        fill: #fff;
      }

      .cls-16 {
        fill: #006ab2;
      }

      .cls-17 {
        fill: #383838;
      }

      .cls-18 {
        fill: #c5efdd;
      }

      .cls-23 {
        display: none;
      }
    </style>
    <linearGradient id="Dégradé_sans_nom" data-name="Dégradé sans nom" x1="277.4" y1="42.8" x2="235.6" y2="11.4" gradientTransform="translate(0 242) scale(1 -1)" gradientUnits="userSpaceOnUse">
      <stop offset=".1" stop-color="#f98886"/>
      <stop offset=".3" stop-color="#f99694"/>
    </linearGradient>
    <linearGradient id="Dégradé_sans_nom_2" data-name="Dégradé sans nom 2" x1="277" y1="106.6" x2="296.7" y2="44.9" gradientTransform="translate(0 242) scale(1 -1)" gradientUnits="userSpaceOnUse">
      <stop offset=".1" stop-color="#f98886"/>
      <stop offset=".3" stop-color="#f99694"/>
    </linearGradient>
    <linearGradient id="Dégradé_sans_nom_3" data-name="Dégradé sans nom 3" x1="289.8" y1="362.9" x2="202.2" y2="356.6" gradientTransform="translate(3.9 -30.4) rotate(-6.5) scale(.8 .6)" gradientUnits="userSpaceOnUse">
      <stop offset=".1" stop-color="#f98886"/>
      <stop offset=".3" stop-color="#f99694"/>
    </linearGradient>
    <linearGradient id="Dégradé_sans_nom_4" data-name="Dégradé sans nom 4" x1="207" y1="134.1" x2="295" y2="134.1" gradientTransform="translate(0 242) scale(1 -1)" gradientUnits="userSpaceOnUse">
      <stop offset=".1" stop-color="#f98886"/>
      <stop offset=".3" stop-color="#f99694"/>
    </linearGradient>
    <linearGradient id="Dégradé_sans_nom_5" data-name="Dégradé sans nom 5" x1="279.4" y1="128.4" x2="264.5" y2="72.6" gradientTransform="translate(0 242) scale(1 -1)" gradientUnits="userSpaceOnUse">
      <stop offset=".1" stop-color="#f98886"/>
      <stop offset=".3" stop-color="#f99694"/>
    </linearGradient>
    <linearGradient id="Dégradé_sans_nom_6" data-name="Dégradé sans nom 6" x1="260.6" y1="169.1" x2="262.7" y2="92.1" gradientTransform="translate(0 242) scale(1 -1)" gradientUnits="userSpaceOnUse">
      <stop offset=".1" stop-color="#f98886"/>
      <stop offset=".3" stop-color="#f99694"/>
    </linearGradient>
    <linearGradient id="Dégradé_sans_nom_7" data-name="Dégradé sans nom 7" x1="241.8" y1="101.8" x2="243.8" y2="93.6" gradientTransform="translate(0 242) scale(1 -1)" gradientUnits="userSpaceOnUse">
      <stop offset=".1" stop-color="#f98886"/>
      <stop offset=".3" stop-color="#f99694"/>
    </linearGradient>
  </defs>
  <g id="BACKGROUND" class="cls-23">
    <rect class="cls-3" x="-487.2" y="-76.2" width="500" height="500"/>
    <rect class="cls-1" x="-487.2" y="-76.2" width="500" height="500"/>
  </g>
  <g id="OBJECTS">
    <g>
      <g>
        <g>
          <path class="cls-19" d="M49.8,159.3h9.1v12.9h-9.1v17.4h-16v-17.4H.7l-.7-10.1,33.6-53.1h16.2v50.3h0ZM16,159.3h17.8v-28.5l-1,1.8-16.8,26.6Z"/>
          <path class="cls-19" d="M128.6,156.3c0,11.1-2.3,19.7-6.9,25.6s-11.4,8.9-20.3,8.9-15.5-2.9-20.2-8.7c-4.7-5.8-7-14.1-7.2-24.9v-14.9c0-11.3,2.3-19.8,7-25.7,4.7-5.8,11.4-8.8,20.2-8.8s15.5,2.9,20.2,8.7c4.7,5.8,7,14.1,7.2,24.9v14.9h0ZM112.6,140c0-6.7-.9-11.6-2.7-14.6-1.8-3.1-4.7-4.6-8.6-4.6s-6.6,1.4-8.3,4.3c-1.8,2.9-2.7,7.4-2.8,13.6v19.6c0,6.6.9,11.5,2.7,14.7s4.7,4.8,8.6,4.8,6.7-1.5,8.5-4.6,2.6-7.8,2.7-14.1v-19.2h0Z"/>
        </g>
        <rect class="cls-7" x="5.2" y="190.7" width="208.2" height=".8"/>
        <path class="cls-19" d="M173.9,137l8.8-2.4,3.4,12.4-8.8,2.4,4.6,16.8-15.4,4.2-4.6-16.8-31.9,8.8-3.4-9.5,18.3-60.2,15.6-4.3,13.4,48.5h0ZM141.3,146l17.2-4.7-7.6-27.4-.5,2-9.1,30.2Z"/>
      </g>
      <g class="cls-21">
        <text class="cls-20" transform="translate(2.2 212.8)"><tspan x="0" y="0">THE PAGE YOU’RE LOOKING</tspan></text>
        <text class="cls-22" transform="translate(180.4 212.8)"><tspan x="0" y="0"> </tspan></text>
        <text class="cls-20" transform="translate(2.2 229)"><tspan x="0" y="0">FOR DOESN’T EXIST.</tspan></text>
      </g>
    </g>
    <g>
      <path class="cls-6" d="M338.9,230.7c0,5.4-24.3,9.8-54.3,9.8s-54.3-4.4-54.3-9.8,24.3-9.8,54.3-9.8,54.3,4.4,54.3,9.8Z"/>
      <g>
        <path class="cls-19" d="M160.2,184.4c2.5,1,5,2.1,7.5,3.1.7.3,1-.9.3-1.1-2.5-1-5-2.1-7.5-3.1-.7-.3-1,.9-.3,1.1h0Z"/>
        <path class="cls-19" d="M173.9,173.4c.9,1.6,1.8,3.1,2.7,4.7.4.6,1.4,0,1-.6-.9-1.6-1.8-3.1-2.7-4.7-.4-.6-1.4,0-1,.6h0Z"/>
        <path class="cls-19" d="M190.9,169.4c-.4,1.8-.7,3.7-1.1,5.5-.1.7,1,1.1,1.1.3.4-1.8.7-3.7,1.1-5.5.1-.7-1-1.1-1.1-.3h0Z"/>
        <path class="cls-19" d="M204.3,172.2c-1.3.9-2.6,1.8-3.9,2.7-.6.4,0,1.4.6,1,1.3-.9,2.6-1.8,3.9-2.7.6-.4,0-1.4-.6-1h0Z"/>
        <path class="cls-19" d="M203.1,185c2.7-1,5.5-2.1,8.2-3.1.7-.3.4-1.4-.3-1.1-2.7,1.1-5.5,2.1-8.2,3.1-.7.3-.4,1.4.3,1.1h0Z"/>
      </g>
      <g>
        <path class="cls-5" d="M262.2,174s-9.4,27.8-8.6,29.4c.8,1.6,14.5,11,14.5,11l-11,5.1s-2,5.4-1.6,5.5c18.6,4.4,36.1,0,36.1,0,0,0,0-4.7-5.9-11.8-2.4-2.8-22.7-11.4-22.7-11.4l20.4-22.7-21.2-5.1h0Z"/>
        <path class="cls-14" d="M254.1,94.9c26.4-4.3,83.4,58.9,52.2,93.6-7.4,8.2-32.7,13.7-44.5-3.7-10.1-14.9,10.1-65.9-6.1-67.9s-7.1-21.1-1.6-22h0Z"/>
        <path class="cls-4" d="M283.7,183.6s-9.4,27.8-8.6,29.4c.8,1.6,14.5,11,14.5,11l-11,5.1s-2,5.4-1.6,5.5c18.6,4.4,36.1,0,36.1,0,0,0,0-4.7-5.9-11.8-2.4-2.8-22.7-11.4-22.7-11.4l20.4-22.7-21.2-5.1h0Z"/>
        <path class="cls-15" d="M191.4,150.8s38.8,30.4,78.5-2.1l-46.8,6.2s-27.3-21.2-37.6-11.8c-4.8,4.4-8.2,6.4-8.2,6.4l.8,2.4s8.7-1.7,13.2-1.2h0Z"/>
        <path class="cls-16" d="M269.1,145.3s-6.3-10.3-25.1,2.7c0,0,.7,7.6,9.1,15.4,0,0,18.5-8.6,16-18.1h0Z"/>
        <path class="cls-9" d="M246,145.6s3.6,10.8,10.8,16.6l-5.6,3.3s-7.3-6.4-10.4-17.2l5.2-2.7h0Z"/>
        <path class="cls-2" d="M255.5,178.7c7,12.5,36.5,17.8,57,6.3,0,0,13.7-28.8-11.9-60.3l-9.7-13.5-31.2,26.5s-5.3,39.3-4.3,41.1h0Z"/>
        <path class="cls-9" d="M287.1,104.5c.8.4,12.7,11.6,13.9,14.1,1.2,2.6,0,7.2-1.6,9.4s-18,26.9-41.9,22.9c-23.9-3.9,13.5-39.4,13.5-39.4l16.1-7.1h0Z"/>
        <g>
          <path class="cls-12" d="M292.1,91.4c8.7,21.6-2.7,46.5-25.3,55.6-22.7,9.1-48.1-1-56.8-22.6-8.7-21.6,2.7-46.5,25.3-55.6,22.7-9.1,48.1,1,56.8,22.6Z"/>
          <path class="cls-13" d="M266.7,108c0,12.1,8.1,22,18.2,22s2.1-.1,3.1-.4c7.3-11.2,9.2-25.3,4-38.2-.6-1.6-1.4-3.1-2.2-4.5-1.6-.6-3.3-.9-5-.9-10.1,0-18.2,9.8-18.2,21.9Z"/>
          <path class="cls-8" d="M222.4,122.7c1.5,3.7.9,7.5-1.4,8.4-2.3.9-5.3-1.3-6.8-5-1.5-3.7,3.2-2.7,4.5-7.5.6-2.4,2.3.5,3.8,4.2h0Z"/>
          <path class="cls-8" d="M253.5,119.5c0,5.1-3,9.3-6.6,9.3s-6.6-4.2-6.6-9.3,5.5-11.2,6.4-7.6c1.8,7.3,6.9,2.5,6.9,7.6Z"/>
          <path class="cls-17" d="M253.7,119.2c0,5.1-2.8,9.3-6.2,9.3s-6.2-4.2-6.2-9.3,4-9.9,5.8-7.1c3.1,4.8,6.7,1.9,6.7,7.1h0Z"/>
          <path class="cls-17" d="M222.4,122.5c1.5,3.6.9,7.3-1.2,8.1s-5-1.4-6.5-5.1,1.6-.9,4.1-6.8c.9-2.1,2.1.1,3.5,3.8h0Z"/>
          <path class="cls-17" d="M231,146.8c-.3,0-.6-.2-.6-.5,0-.2-.4-5.5,4.9-8.2,3.9-2.1,14.3-4.3,25.1,2.1.3.2.4.5.2.8-.2.3-.5.4-.8.2-10.4-6.1-20.2-4-24-2.1-4.6,2.4-4.3,6.9-4.3,7.1,0,.3-.2.6-.5.6h0Z"/>
        </g>
        <path class="cls-4" d="M245.4,66.2s-23.8-3.2-37.6,3.8c-17.9,9.2,3.8,10,2.9,10.3s-24.4,19.3-14,51.1c1.6,5,4.9-32.7,15.1-33.6,1.1,0-.5,4.1-.2,7.1.4,4,2.6,7,3.5,5.5,15.3-23.9,34.8-18.3,48.6-25.5,17.2-8.9,29.8,13.3,26.9,3.7-7.5-23.9-39.9-33.2-49.6-31.5-11,2,4.4,9.1,4.4,9.1h0Z"/>
        <path class="cls-10" d="M243.2,70.9s21.9,5.3,28.6,24.1c6.7,18.8,6.5-7.8,6.5-7.8l-8.8-11.2s-24.1-12.5-26.3-5.1h0Z"/>
        <path class="cls-4" d="M293.2,143.7s6.3,68.2,13.3,70.9,19.2-3.1,19.2-5.9-2.8-3.9-2.8-3.9l-7.5,2s-4.7-9.8-6.7-12.1c-2-2.4-3.1-51-3.1-51,0,0-9-15.7-12.5,0h0Z"/>
        <path class="cls-16" d="M299.6,133.7s-12.9,1.3-9.2,25.6c0,0,7.7,2.9,19.3-1.6,0,0,.3-22.1-10-24h0Z"/>
        <path class="cls-9" d="M289,156.2s12.1,1.6,21.2-2.7l.6,7.1s-9.6,4.1-21.6,2l-.2-6.3h0Z"/>
        <path class="cls-11" d="M237.9,141.5s4-3.6,8.8-.5-12.8,7.8-8.8.5Z"/>
        <g>
          <g>
            <path class="cls-19" d="M276.3,103c0-11.2,6.9-20.3,15.4-20.3s1.3,0,1.9.2c-2.2-1.1-4.6-1.8-7.2-1.8-10.1,0-18.2,9.8-18.2,22s8.1,21.9,18.2,21.9,5-.6,7.2-1.8c-.6.1-1.3.2-1.9.2-8.5,0-15.4-9.1-15.4-20.4Z"/>
            <path class="cls-7" d="M293.4,121.3c-7.5,0-13.6-8.1-13.6-18.1s6.1-18.1,13.6-18.1,3.2.4,4.7,1.1c-1.4-1.4-2.9-2.5-4.5-3.4-.6,0-1.3-.2-1.9-.2-8.5,0-15.4,9.1-15.4,20.3s6.9,20.3,15.4,20.3,1.3,0,1.9-.2c1.3-.7,2.6-1.6,3.7-2.6-1.2.5-2.5.8-3.9.8h0Z"/>
            <path class="cls-9" d="M304.6,103c0-6.7-2.5-12.8-6.5-16.8-1.5-.7-3.1-1.1-4.7-1.1-7.5,0-13.6,8.1-13.6,18.1s6.1,18.1,13.6,18.1,2.7-.3,3.9-.8c4.4-4,7.3-10.4,7.3-17.5Z"/>
          </g>
          <g>
            <path class="cls-19" d="M276.1,88.5l5.6-5.3c-16.8-23.5-38.2-18.5-38.2-18.5,0,0-4.1,1.2-6.5,3.2,0,0,25.7-3.1,39.1,20.6h0Z"/>
            <path class="cls-9" d="M237.3,70.5c23.8-3.2,37.3,19.4,37.3,19.4l1.5-1.4c-13.4-23.7-39.1-20.6-39.1-20.6-2.4,2.1.3,2.7.3,2.7h0Z"/>
          </g>
        </g>
        <path class="cls-4" d="M244.5,70.8s-7-3.2-10.2-9.1c-3.2-5.9-6-7.1-4.8,1.1,1.2,8.1,3.4,10.3,3.4,10.3,0,0-8.5-15.7-10.1-13-1.6,2.7,4.7,17.3,4.7,17.3,0,0,27.5.2,16.9-6.6h0Z"/>
      </g>
      <g>
        <path class="cls-18" d="M267.4,160.1c-.1,2.7-1.5,4.8-3.1,4.7-1.5,0-2.7-2.3-2.5-5,.1-2.7,1.5-4.8,3.1-4.7,1.5,0,2.7,2.3,2.5,5Z"/>
        <path class="cls-19" d="M266.6,160.1c-.1,2.7-1.5,4.8-3.1,4.7-1.5,0-2.7-2.3-2.5-5,.1-2.7,1.5-4.8,3.1-4.7s2.7,2.3,2.5,5Z"/>
      </g>
      <g>
        <path class="cls-18" d="M265.7,174.1c-.1,2.7-1.5,4.8-3.1,4.7s-2.7-2.3-2.5-5c.1-2.7,1.5-4.8,3.1-4.7,1.5,0,2.7,2.3,2.5,5Z"/>
        <path class="cls-19" d="M264.8,174c-.1,2.7-1.5,4.8-3.1,4.7s-2.7-2.3-2.5-5c.1-2.7,1.5-4.8,3.1-4.7,1.5,0,2.7,2.3,2.5,5Z"/>
      </g>
      <g>
        <path class="cls-19" d="M250.2,15.7c-11.5-6.6,5.6-20.4,10.2-8.1,2.4,6.4-3.4,14.5-6.1,20.2-.7,1.5,1.5,2.9,2.3,1.3,2.7-5.6,7.8-12.9,7.1-19.5-.5-4.8-4.4-9-9.3-9.5-10.5-1-14.6,12.8-5.6,17.9,1.5.9,2.8-1.4,1.3-2.3h0Z"/>
        <path class="cls-19" d="M255.9,38.7c.1,1.3.2,2.5.3,3.8.9-.1,1.7-.2,2.6-.3-.1-.9-.3-1.8-.4-2.6-.1-.7-1-1.1-1.6-.9-.8.2-1,.9-.9,1.6.1.9.3,1.8.4,2.6.2,1.5,2.7,1.1,2.6-.3-.1-1.3-.2-2.5-.3-3.8-.1-1.7-2.8-1.7-2.6,0h0Z"/>
        <path class="cls-19" d="M287.3,10.6c-3.5,7.3-7,14.6-10.5,22-.7,1.5,1.5,2.9,2.3,1.3l10.5-22c.7-1.5-1.5-2.9-2.3-1.3h0Z"/>
        <path class="cls-19" d="M271.1,41.4c-1.1,1.1-.2,3.1,1.4,2.9.7,0,1.2-.6,1.4-1.3.2-.8-.2-1.5-.8-1.9-.6-.4-1.5,0-1.8.5-.4.7-.1,1.4.5,1.8h0c-.2,0-.3-.3-.5-.4,0-.2,0-.5,0-.8.2-.2.3-.3.5-.5.1,0,.2,0,.4,0,.2,0,.5.1.7.2.2.2.3.4.4.6,0,.2-.1.4-.2.7,0,0,0,0,0,0,1.2-1.2-.7-3.1-1.9-1.9h0Z"/>
        <path class="cls-19" d="M300.6,51.5c6.7-5.1,0-15.5-7-10.4-2.2,1.7-2.9,5-1.2,7.3,2.9,3.9,6.3-.1,9-1.6,1.3-.7.4-3-1-2.4-6.6,2.7.2,11.9,5.9,6.3,4.9-4.8,4.2-18.9-3.8-20.1-9.4-1.4-18.2,10.7-16.9,19.2,1.2,8,10.9,13.1,17,6.5,1.2-1.2-.7-3.1-1.9-1.9-4.2,4.5-10.8,1.7-12.3-3.7-1.3-4.7.9-9.3,4.1-12.7,3.2-3.4,11.1-8.3,13.4-1.1.6,1.7.5,3.8.4,5.6,0,1.2-.2,2.5-.5,3.7-.7,3.4-2.3,3.7-4.8.8-.3-.8-.7-1.6-1-2.4-.9.5-1.8,1.5-2.7,1.9-1.7,1.6-1.7.3,0-3.9,4.1,1.5,4.8,3.8,1.9,6.7-1.3,1,0,3.3,1.3,2.3h0Z"/>
        <path class="cls-19" d="M220.3,29.5c3.7,4.8,6.9,9.9,10.6,14.7,1,1.3,3.3,0,2.3-1.3-3.7-4.8-6.9-9.9-10.6-14.7-1-1.3-3.3,0-2.3,1.3h0Z"/>
        <path class="cls-19" d="M229.8,26.9c3.2,4.7,6.9,9,10.1,13.6.9,1.4,3.2,0,2.3-1.3-3.2-4.7-6.9-9-10.1-13.6-.9-1.4-3.2,0-2.3,1.3h0Z"/>
        <path class="cls-19" d="M220.4,38.9c4.4-5.3,10.3-8.6,17.1-9.7,1.7-.3,1-2.8-.7-2.5-7.2,1.1-13.6,4.7-18.2,10.3-1.1,1.3.8,3.2,1.9,1.9h0Z"/>
        <path class="cls-19" d="M223.3,42.4c5.9-2.3,11.8-4.6,17.7-7,1.6-.6.9-3.2-.7-2.5-5.9,2.3-11.8,4.6-17.7,7-1.6.6-.9,3.2.7,2.5h0Z"/>
      </g>
      <path class="cls-19" d="M251.3,127.7c0,1.1-1.3,2-2.9,2s-2.9-.9-2.9-2,1.3-2,2.9-2,2.9.9,2.9,2Z"/>
      <path class="cls-19" d="M222.7,130.1c.2.7-.8,1.6-2.1,2-1.4.4-2.6,0-2.8-.7-.2-.7.8-1.6,2.1-2,1.4-.4,2.6,0,2.8.7Z"/>
    </g>
  </g>
</svg>