<?xml version="1.0" encoding="UTF-8"?>
<svg id="eLe-icons" xmlns="http://www.w3.org/2000/svg" viewBox="0 0 512 512">
  <path
    d="M98.28,355.6c-.71,1.43-2.75,1.73-4.37.71-2.04-1.02-3.06-2.65-2.35-3.97.72-1.02,2.35-1.32,4.38-.71,2.04,1.02,3.06,2.65,2.34,3.97ZM107.86,361.61c-1.63-1.63-3.97-2.34-5.3-1.02-1.32,1.02-1.02,3.36.71,5.3,1.63,1.62,3.98,2.34,5.3,1.01,1.32-1.01,1.02-3.36-.71-5.29ZM118.65,375.66c-1.42-2.34-4.07-3.36-5.7-2.04-1.63,1.02-1.63,3.67,0,6.01,1.63,2.35,4.38,3.36,5.7,2.35,1.63-1.33,1.63-3.98,0-6.32ZM131.18,389.61c-2.24-2.34-5.3-2.64-6.62-1.02-1.63,1.33-1.02,4.38,1.32,6.32,2.34,2.34,5.3,2.65,6.62,1.02,1.33-1.33.71-4.38-1.32-6.32ZM147.17,398.98c-2.65-.71-5.61.31-6.32,2.34-.71,2.04,1.33,4.38,4.38,4.99,2.65,1.02,5.7,0,6.32-2.03.61-2.04-1.33-4.38-4.38-5.3ZM166.82,402.24c-2.95,0-5.29,1.63-5.29,3.67,0,2.34,2.34,3.97,5.7,3.66,2.95,0,5.29-1.63,5.29-3.66,0-2.34-2.64-3.97-5.7-3.67ZM191.87,402.55c-.3-1.94-3.05-3.26-6.01-2.96-2.95.72-4.99,2.65-4.68,4.99.31,2.04,2.95,3.36,6.01,2.65,2.95-.71,4.99-2.65,4.68-4.68ZM512,256c0,115.78-76.86,213.62-182.35,245.25-6.84-1.56-9.46-7.37-9.46-12.35,0-8.35.3-50.81.3-85.13,0-23.93-7.94-39.21-17.31-47.25,56.93-6.42,116.91-14.26,116.91-112.53,0-27.91-9.98-41.96-26.27-59.99,2.64-6.62,11.3-33.81-2.65-69.14-21.29-6.72-70.27,27.49-70.27,27.49-20.37-5.7-42.26-8.65-63.95-8.65s-43.59,2.95-63.96,8.65c0,0-48.98-34.11-70.26-27.49-13.96,35.23-5.3,62.52-2.65,69.14-16.3,17.93-24.04,31.98-24.04,59.99,0,97.96,57.44,106.21,114.37,112.53-7.34,6.72-13.95,18.02-16.3,34.32-14.56,6.72-51.93,18.02-74.24-21.29-13.95-24.24-39.31-26.27-39.31-26.27-24.95-.31-1.62,15.68-1.62,15.68,16.7,7.64,28.31,37.27,28.31,37.27,14.97,45.63,86.25,30.35,86.25,30.35,0,21.39.31,56.21.31,62.53,0,4.96-3.41,10.92-10.19,12.51C77.48,470.39,0,372.24,0,256,0,114.61,114.62,0,256,0s256,114.61,256,256Z"
    style="fill: #191919; stroke-width: 0px;" />
</svg>