<?xml version="1.0" encoding="UTF-8"?>
<svg id="eLe-icons" xmlns="http://www.w3.org/2000/svg" viewBox="0 0 512 512">
  <path
    d="M256,206.72c-27.22,0-49.28,22.06-49.28,49.28s22.06,49.28,49.28,49.28,49.28-22.06,49.28-49.28-22.06-49.28-49.28-49.28ZM256,206.72c-27.22,0-49.28,22.06-49.28,49.28s22.06,49.28,49.28,49.28,49.28-22.06,49.28-49.28-22.06-49.28-49.28-49.28ZM256,206.72c-27.22,0-49.28,22.06-49.28,49.28s22.06,49.28,49.28,49.28,49.28-22.06,49.28-49.28-22.06-49.28-49.28-49.28ZM256,206.72c-27.22,0-49.28,22.06-49.28,49.28s22.06,49.28,49.28,49.28,49.28-22.06,49.28-49.28-22.06-49.28-49.28-49.28ZM256,206.72c-27.22,0-49.28,22.06-49.28,49.28s22.06,49.28,49.28,49.28,49.28-22.06,49.28-49.28-22.06-49.28-49.28-49.28ZM256,206.72c-27.22,0-49.28,22.06-49.28,49.28s22.06,49.28,49.28,49.28,49.28-22.06,49.28-49.28-22.06-49.28-49.28-49.28ZM256,206.72c-27.22,0-49.28,22.06-49.28,49.28s22.06,49.28,49.28,49.28,49.28-22.06,49.28-49.28-22.06-49.28-49.28-49.28ZM256,206.72c-27.22,0-49.28,22.06-49.28,49.28s22.06,49.28,49.28,49.28,49.28-22.06,49.28-49.28-22.06-49.28-49.28-49.28ZM256,206.72c-27.22,0-49.28,22.06-49.28,49.28s22.06,49.28,49.28,49.28,49.28-22.06,49.28-49.28-22.06-49.28-49.28-49.28ZM256,206.72c-27.22,0-49.28,22.06-49.28,49.28s22.06,49.28,49.28,49.28,49.28-22.06,49.28-49.28-22.06-49.28-49.28-49.28ZM256,206.72c-27.22,0-49.28,22.06-49.28,49.28s22.06,49.28,49.28,49.28,49.28-22.06,49.28-49.28-22.06-49.28-49.28-49.28ZM256,206.72c-27.22,0-49.28,22.06-49.28,49.28s22.06,49.28,49.28,49.28,49.28-22.06,49.28-49.28-22.06-49.28-49.28-49.28ZM256,206.72c-27.22,0-49.28,22.06-49.28,49.28s22.06,49.28,49.28,49.28,49.28-22.06,49.28-49.28-22.06-49.28-49.28-49.28ZM256,206.72c-27.22,0-49.28,22.06-49.28,49.28s22.06,49.28,49.28,49.28,49.28-22.06,49.28-49.28-22.06-49.28-49.28-49.28ZM256,206.72c-27.22,0-49.28,22.06-49.28,49.28s22.06,49.28,49.28,49.28,49.28-22.06,49.28-49.28-22.06-49.28-49.28-49.28ZM256,206.72c-27.22,0-49.28,22.06-49.28,49.28s22.06,49.28,49.28,49.28,49.28-22.06,49.28-49.28-22.06-49.28-49.28-49.28ZM256,0C114.61,0,0,114.61,0,256s114.61,256,256,256,256-114.62,256-256S397.38,0,256,0ZM329.18,161.92h0s6.97-6.97,6.97-6.97c2.89-2.89,6.67-4.34,10.45-4.34s7.57,1.45,10.45,4.33h0c5.78,5.78,5.78,15.14,0,20.91l-6.96,6.97h-.01c-5.77,5.78-15.13,5.78-20.9,0-5.78-5.77-5.78-15.13,0-20.9ZM241.22,113.09c0-4.09,1.65-7.78,4.33-10.46,2.67-2.67,6.37-4.33,10.45-4.33,8.17,0,14.78,6.62,14.78,14.79v24.64c0,4.08-1.65,7.77-4.33,10.45-2.67,2.68-6.37,4.33-10.45,4.33s-7.78-1.65-10.45-4.33c-2.68-2.68-4.33-6.37-4.33-10.45v-24.64ZM154.95,154.95h0c5.77-5.78,15.13-5.78,20.9-.01h0s6.97,6.97,6.97,6.97c2.89,2.89,4.34,6.67,4.34,10.46s-1.45,7.57-4.34,10.45c-5.77,5.78-15.13,5.78-20.9,0l-6.97-6.97c-2.89-2.89-4.33-6.67-4.33-10.45s1.44-7.56,4.33-10.45ZM137.73,270.78h-24.64c-4.09,0-7.78-1.65-10.46-4.33-2.67-2.67-4.33-6.37-4.33-10.45,0-8.17,6.62-14.78,14.79-14.78h24.64c4.08,0,7.77,1.65,10.45,4.33,2.68,2.67,4.33,6.37,4.33,10.45s-1.65,7.78-4.33,10.45c-2.68,2.68-6.37,4.33-10.45,4.33ZM182.82,350.08h0s-6.97,6.97-6.97,6.97c-2.89,2.89-6.67,4.33-10.45,4.33s-7.56-1.44-10.45-4.33c-5.78-5.77-5.78-15.13,0-20.9l6.97-6.97c2.88-2.89,6.67-4.34,10.45-4.34s7.57,1.45,10.45,4.34c5.78,5.77,5.78,15.13,0,20.9ZM270.78,398.91c0,4.09-1.65,7.78-4.33,10.46-2.67,2.67-6.37,4.33-10.45,4.33s-7.78-1.66-10.45-4.33c-2.68-2.68-4.33-6.37-4.33-10.46v-24.64c0-4.08,1.65-7.77,4.33-10.45,2.67-2.68,6.37-4.33,10.45-4.33,8.17,0,14.78,6.62,14.78,14.78v24.64ZM256,334.85c-43.55,0-78.85-35.3-78.85-78.85s35.3-78.85,78.85-78.85,78.85,35.3,78.85,78.85-35.3,78.85-78.85,78.85ZM357.05,357.05c-5.77,5.78-15.13,5.78-20.9,0l-6.97-6.96h-.01c-2.88-2.89-4.33-6.67-4.33-10.46s1.45-7.56,4.34-10.45c5.77-5.78,15.13-5.78,20.9-.01h.01s6.96,6.98,6.96,6.98c2.89,2.89,4.33,6.67,4.33,10.45s-1.44,7.56-4.33,10.45ZM409.37,266.45c-2.68,2.68-6.37,4.33-10.46,4.33h-24.64c-4.08,0-7.77-1.65-10.45-4.33-2.68-2.67-4.33-6.37-4.33-10.45,0-8.17,6.62-14.78,14.78-14.78h24.64c4.09,0,7.78,1.65,10.46,4.33,2.67,2.67,4.33,6.37,4.33,10.45s-1.66,7.78-4.33,10.45ZM256,206.72c-27.22,0-49.28,22.06-49.28,49.28s22.06,49.28,49.28,49.28,49.28-22.06,49.28-49.28-22.06-49.28-49.28-49.28ZM256,206.72c-27.22,0-49.28,22.06-49.28,49.28s22.06,49.28,49.28,49.28,49.28-22.06,49.28-49.28-22.06-49.28-49.28-49.28ZM256,206.72c-27.22,0-49.28,22.06-49.28,49.28s22.06,49.28,49.28,49.28,49.28-22.06,49.28-49.28-22.06-49.28-49.28-49.28ZM256,206.72c-27.22,0-49.28,22.06-49.28,49.28s22.06,49.28,49.28,49.28,49.28-22.06,49.28-49.28-22.06-49.28-49.28-49.28ZM256,206.72c-27.22,0-49.28,22.06-49.28,49.28s22.06,49.28,49.28,49.28,49.28-22.06,49.28-49.28-22.06-49.28-49.28-49.28ZM256,206.72c-27.22,0-49.28,22.06-49.28,49.28s22.06,49.28,49.28,49.28,49.28-22.06,49.28-49.28-22.06-49.28-49.28-49.28ZM256,206.72c-27.22,0-49.28,22.06-49.28,49.28s22.06,49.28,49.28,49.28,49.28-22.06,49.28-49.28-22.06-49.28-49.28-49.28ZM256,206.72c-27.22,0-49.28,22.06-49.28,49.28s22.06,49.28,49.28,49.28,49.28-22.06,49.28-49.28-22.06-49.28-49.28-49.28ZM256,206.72c-27.22,0-49.28,22.06-49.28,49.28s22.06,49.28,49.28,49.28,49.28-22.06,49.28-49.28-22.06-49.28-49.28-49.28ZM256,206.72c-27.22,0-49.28,22.06-49.28,49.28s22.06,49.28,49.28,49.28,49.28-22.06,49.28-49.28-22.06-49.28-49.28-49.28ZM256,206.72c-27.22,0-49.28,22.06-49.28,49.28s22.06,49.28,49.28,49.28,49.28-22.06,49.28-49.28-22.06-49.28-49.28-49.28ZM256,206.72c-27.22,0-49.28,22.06-49.28,49.28s22.06,49.28,49.28,49.28,49.28-22.06,49.28-49.28-22.06-49.28-49.28-49.28ZM256,206.72c-27.22,0-49.28,22.06-49.28,49.28s22.06,49.28,49.28,49.28,49.28-22.06,49.28-49.28-22.06-49.28-49.28-49.28ZM256,206.72c-27.22,0-49.28,22.06-49.28,49.28s22.06,49.28,49.28,49.28,49.28-22.06,49.28-49.28-22.06-49.28-49.28-49.28ZM256,206.72c-27.22,0-49.28,22.06-49.28,49.28s22.06,49.28,49.28,49.28,49.28-22.06,49.28-49.28-22.06-49.28-49.28-49.28Z"
    style="fill: #191919; stroke-width: 0px;" />
</svg>