<?xml version="1.0" encoding="UTF-8"?>
<svg id="Calque_1" data-name="Calque 1" xmlns="http://www.w3.org/2000/svg" version="1.1" viewBox="0 0 512 512">
  <defs>
    <style>
      .cls-1 {
        fill: #fff;
      }

      .cls-1, .cls-2 {
        stroke-width: 0px;
      }

      .cls-2 {
        fill: #7451eb;
      }
    </style>
  </defs>
  <rect class="cls-2" width="512" height="512" rx="51.2" ry="51.2"/>
  <path class="cls-1" d="M399.4,258.5c0,33.5-9.2,66.4-26.6,95-17.4,28.6-42.3,51.8-72,67-29.7,15.2-62.9,21.9-96.1,19.2s-65-14.5-92-34.2l61-73.2c13.1,8.1,28,12.5,43.3,12.8,15.3.3,30.5-3.5,43.8-11,13.4-7.5,24.5-18.5,32.3-31.8,7.8-13.3,11.8-28.5,11.8-43.9s-4.1-30.6-11.8-43.9c-7.8-13.3-18.9-24.3-32.3-31.8-13.4-7.5-28.5-11.3-43.8-11-15.3.3-30.3,4.8-43.3,12.8l-61-73.2c26.9-19.7,58.8-31.5,92-34.2s66.5,4,96.1,19.2c29.7,15.2,54.6,38.4,72,67,17.4,28.6,26.6,61.5,26.6,95h0Z"/>
</svg>