<?xml version="1.0" encoding="UTF-8"?>
<svg id="eLe-icons" xmlns="http://www.w3.org/2000/svg" viewBox="0 0 512 512">
  <path
    d="M337.24,325.81c2.85,0,5.69-.09,8.51-.27-21.02,26.38-53.42,43.27-89.75,43.27-63.34,0-114.69-51.34-114.69-114.68,0-47.2,28.52-87.75,69.26-105.35-4.62,13.57-7.14,28.11-7.14,43.22,0,73.9,59.91,133.81,133.81,133.81Z"
    style="fill: #191919; stroke-width: 0px;" />
  <path
    d="M256,0C114.61,0,0,114.61,0,256s114.61,256,256,256,256-114.62,256-256S397.38,0,256,0ZM380.92,324.51c-25.59,45.33-75.17,75.36-131.54,72.83-73.56-3.31-133.32-63.1-136.59-136.65-3.12-69.92,43.85-129.38,108.04-145.58,1.61-.4,3.23-.6,4.83-.6,6.81,0,13.31,3.51,17.08,9.44,3.85,6.06,4.2,13.7.92,20.08-8.11,15.78-12.34,33.88-11.43,53.08,2.59,54.95,48.29,99.14,103.3,100.01,8.03.13,15.85-.64,23.36-2.21,1.42-.3,2.86-.45,4.28-.45,5.65,0,11.11,2.33,15,6.6,5.83,6.42,7.02,15.89,2.75,23.45ZM395.16,178.24c-2.6,2.6-6.18,4.2-10.14,4.2h-19.11v19.12c0,3.96-1.61,7.54-4.2,10.14-2.59,2.6-6.18,4.2-10.14,4.2s-7.54-1.6-10.13-4.2c-2.6-2.6-4.2-6.18-4.2-10.14v-19.12h-19.12c-3.96,0-7.54-1.6-10.13-4.2-2.59-2.59-4.2-6.17-4.2-10.13s1.61-7.55,4.2-10.14c2.59-2.59,6.17-4.2,10.13-4.2h19.12v-19.11c0-3.96,1.6-7.54,4.2-10.14,2.59-2.6,6.18-4.2,10.13-4.2,7.92,0,14.34,6.42,14.34,14.34v19.11h19.11c3.96,0,7.54,1.61,10.14,4.2,2.6,2.59,4.2,6.18,4.2,10.14s-1.6,7.54-4.2,10.13Z"
    style="fill: #191919; stroke-width: 0px;" />
</svg>