<?xml version="1.0" encoding="UTF-8"?>
<svg id="eLe-icons" xmlns="http://www.w3.org/2000/svg" viewBox="0 0 512 512">
  <path
    d="M256,0C114.61,0,0,114.61,0,256s114.61,256,256,256,256-114.62,256-256S397.38,0,256,0ZM256,70.1c20.53,0,37.18,16.64,37.18,37.18s-16.65,37.18-37.18,37.18-37.18-16.65-37.18-37.18,16.64-37.18,37.18-37.18ZM305.57,441.9h-99.15c-13.71,0-24.78-11.07-24.78-24.78s11.07-24.79,24.78-24.79h24.79v-148.72h-24.79c-13.71,0-24.78-11.08-24.78-24.79s11.07-24.79,24.78-24.79h49.58c13.71,0,24.78,11.08,24.78,24.79v173.51h24.79c13.71,0,24.79,11.08,24.79,24.79s-11.08,24.78-24.79,24.78Z"
    style="fill: #191919; stroke-width: 0px;" />
</svg>