<?xml version="1.0" encoding="UTF-8"?>
<svg id="eLe-icons" xmlns="http://www.w3.org/2000/svg" viewBox="0 0 512 512">
  <path
    d="M256,0C114.61,0,0,114.61,0,256s114.61,256,256,256,256-114.62,256-256S397.38,0,256,0ZM187.38,380.94h-60.05v-193.33h60.05v193.33ZM157.33,161.24c-19.2,0-34.78-15.9-34.78-35.1s15.57-34.77,34.78-34.77,34.77,15.57,34.77,34.77-15.58,35.1-34.77,35.1ZM412.12,380.94h-59.98v-94.11c0-22.43-.45-51.19-31.22-51.19s-36,24.36-36,49.57v95.73h-59.98v-193.33h57.59v26.37h.84c8.01-15.19,27.6-31.22,56.81-31.22,60.76,0,71.94,40.01,71.94,91.98v106.2Z"
    style="fill: #191919; stroke-width: 0px;" />
</svg>