<?xml version="1.0" encoding="UTF-8"?>
<svg id="eLe-icons" xmlns="http://www.w3.org/2000/svg" viewBox="0 0 512 512">
  <path
    d="M256.01,0C114.61,0,0,114.61,0,256s114.61,256,256,256,256-114.62,256-256S397.38,0,256.01,0ZM215.46,372.79l-.9.62c-32.43,23.17-76.86,19.51-105.06-8.69-31.86-31.86-31.86-83.46,0-115.32l63.33-63.32c31.86-31.87,83.46-31.87,115.32,0,28.19,28.19,31.86,72.63,8.63,105.05l-.62.9c-5.76,8.07-17.09,9.93-25.16,4.18-8.06-5.76-9.98-17.03-4.17-25.15l.62-.91c12.92-18.1,10.89-42.85-4.85-58.59-17.76-17.76-46.52-17.76-64.28,0l-63.27,63.33c-17.77,17.76-17.77,46.52,0,64.34,15.67,15.74,40.43,17.77,58.53,4.85l.9-.62c8.07-5.81,19.34-3.89,25.15,4.17,5.81,8.07,3.95,19.35-4.17,25.16ZM402.51,262.6l-63.33,63.32c-31.86,31.87-83.46,31.87-115.32,0-28.19-28.19-31.86-72.63-8.63-105l.62-.9c5.76-8.06,17.09-9.92,25.16-4.17,8.06,5.75,9.98,17.03,4.17,25.15l-.62.9c-12.92,18.05-10.89,42.8,4.85,58.54,17.76,17.76,46.52,17.76,64.28,0l63.27-63.39c17.77-17.76,17.77-46.52,0-64.28-15.67-15.74-40.43-17.77-58.53-4.85l-.9.62c-8.07,5.81-19.34,3.89-25.15-4.17-5.81-8.07-3.95-19.35,4.17-25.16l.9-.62c32.43-23.17,76.86-19.51,105.06,8.69,31.86,31.86,31.86,83.46,0,115.32Z"
    style="fill: #191919; stroke-width: 0px;" />
</svg>