<?xml version="1.0" encoding="UTF-8"?>
<svg id="eLe-icons" xmlns="http://www.w3.org/2000/svg" viewBox="0 0 512 512">
  <path
    d="M380.8,179.2v13.26l-103.44,84.96c-12.42,10.2-30.24,10.2-42.66,0l-103.5-84.96v-13.26c0-5.28,4.32-9.6,9.6-9.6h230.4c5.28,0,9.6,4.32,9.6,9.6ZM216.4,299.68l-85.2-69.96v103.08c0,5.28,4.32,9.6,9.6,9.6h230.4c5.28,0,9.6-4.32,9.6-9.6v-103.08l-85.2,69.96c-23.04,18.9-56.22,18.9-79.2,0ZM512,256c0,141.38-114.62,256-256,256S0,397.38,0,256,114.61,0,256,0s256,114.61,256,256ZM409.6,179.2c0-21.18-17.22-38.4-38.4-38.4h-230.4c-21.18,0-38.4,17.22-38.4,38.4v153.6c0,21.18,17.22,38.4,38.4,38.4h230.4c21.18,0,38.4-17.22,38.4-38.4v-153.6Z"
    style="fill: #f2f2f2; stroke-width: 0px;" />
</svg>