<?xml version="1.0" encoding="UTF-8"?>
<svg id="eLe-icons" xmlns="http://www.w3.org/2000/svg" viewBox="0 0 512 512">
  <rect x="130.25" y="148.43" width="251.5" height="145.09" style="fill: #191919; stroke-width: 0px;" />
  <path
    d="M256,0C114.61,0,0,114.61,0,256s114.61,256,256,256,256-114.62,256-256S397.38,0,256,0ZM410.77,303.2c0,10.68-8.66,19.34-19.35,19.34h-120.91v58.04h19.35c4,0,7.63,1.62,10.26,4.25,2.62,2.63,4.25,6.25,4.25,10.26s-1.63,7.63-4.25,10.26c-2.63,2.63-6.26,4.25-10.26,4.25h-67.72c-4,0-7.63-1.62-10.26-4.25-2.62-2.63-4.25-6.25-4.25-10.26s1.63-7.63,4.25-10.26c2.63-2.63,6.26-4.25,10.26-4.25h19.35v-58.04h-120.91c-10.69,0-19.35-8.66-19.35-19.34v-164.45c0-10.68,8.66-19.34,19.35-19.34h270.84c10.69,0,19.35,8.66,19.35,19.34v164.45Z"
    style="fill: #191919; stroke-width: 0px;" />
</svg>