<?xml version="1.0" encoding="UTF-8"?>
<svg id="eLe-icons" xmlns="http://www.w3.org/2000/svg" viewBox="0 0 512 512">
  <path
    d="M275.2,371.2c0,10.6-8.6,19.2-19.2,19.2s-19.2-8.6-19.2-19.2,8.59-19.2,19.2-19.2,19.2,8.59,19.2,19.2ZM188.8,332.8h134.4v-192h-134.4v192ZM512,256c0,141.38-114.62,256-256,256S0,397.38,0,256,114.61,0,256,0s256,114.61,256,256ZM361.6,140.8c0-21.18-17.22-38.4-38.4-38.4h-134.4c-21.18,0-38.4,17.22-38.4,38.4v230.4c0,21.18,17.22,38.4,38.4,38.4h134.4c21.18,0,38.4-17.22,38.4-38.4v-230.4Z"
    style="fill: #191919; stroke-width: 0px;" />
</svg>