<?xml version="1.0" encoding="UTF-8"?>
<svg id="eLe-icons" xmlns="http://www.w3.org/2000/svg" viewBox="0 0 512 512">
  <path
    d="M256,0C114.62,0,0,114.62,0,256s114.62,256,256,256,256-114.62,256-256S397.39,0,256,0ZM416.98,416.98c-20.92,20.92-45.27,37.34-72.37,48.8-28.05,11.86-57.86,17.88-88.6,17.88V28.35c30.75,0,60.56,6.02,88.6,17.88,27.11,11.46,51.45,27.88,72.37,48.8,20.92,20.92,37.33,45.27,48.8,72.37,11.86,28.05,17.88,57.86,17.88,88.6s-6.02,60.56-17.88,88.6c-11.46,27.11-27.88,51.45-48.8,72.37Z"
    style="fill: #191919; stroke-width: 0px;" />
</svg>