<?xml version="1.0" encoding="UTF-8"?>
<svg id="Calque_1" data-name="Calque 1" xmlns="http://www.w3.org/2000/svg" viewBox="0 0 512 512">
  <path d="M307.97,364.77c27.37-11.11,49.82-31.9,63.05-58.1h-40.05c-5.1,26.04-13.68,44.72-23,58.1Z" style="fill: #191919; stroke-width: 0px;"/>
  <path d="M335.81,251.98c0,10.92-.49,21.03-1.37,30.39h45.75c2.5-9.72,3.84-19.9,3.84-30.39s-1.36-20.8-3.9-30.58h-45.71c.9,9.41,1.39,19.58,1.39,30.58Z" style="fill: #191919; stroke-width: 0px;"/>
  <path d="M262.36,130.91c-4.33,1.72-13.42,6.44-22.67,18.11-7.44,9.39-15.77,24.47-21.06,48.1h87.46c-5.54-24.75-14.45-40.23-22.4-49.72-8.77-10.47-17.3-14.86-21.34-16.49Z" style="fill: #191919; stroke-width: 0px;"/>
  <path d="M256,0C114.61,0,0,114.61,0,256s114.61,256,256,256,256-114.62,256-256S397.38,0,256,0ZM204.89,408.62c-4.78,1.71-10.05-.78-11.77-5.56l-16.57-46.31-36.63,38.18c-5.09,5.31-13.51,5.5-18.83.41-5.31-5.09-5.5-13.51-.41-18.83l37.45-39.1-48.64-19.13c-2.47-.97-4.39-2.99-5.27-5.46-1.7-4.74.76-10,5.54-11.71l145.39-52.03c5.02-1.8,10.56.82,12.35,5.84.8,2.23.73,4.65-.15,6.87l-57.03,141.6c-.99,2.43-2.96,4.33-5.43,5.22ZM365.56,355.18c-27.57,27.57-64.22,42.75-103.2,42.75-9.38,0-18.62-.88-27.64-2.6l12.85-31.92c6.23,5.66,11.71,8.4,14.78,9.62,4.34-1.72,13.42-6.44,22.67-18.1,7.46-9.42,15.81-24.55,21.1-48.28h-35.69l9.78-24.29h29.81c.96-9.17,1.5-19.27,1.5-30.39s-.55-21.35-1.52-30.58h-95.28c-.71,6.76-1.19,14.03-1.4,21.83l-24.4,8.73c0-10.99.49-21.16,1.39-30.57h-45.71c-2.54,9.78-3.9,20.03-3.9,30.58,0,5.71.4,11.32,1.16,16.83l-23.3,8.34c-1.42-8.23-2.15-16.64-2.15-25.17,0-38.98,15.18-75.64,42.75-103.2,27.57-27.57,64.22-42.75,103.2-42.75s75.64,15.18,103.2,42.75c27.57,27.57,42.75,64.22,42.75,103.2s-15.18,75.64-42.75,103.2Z" style="fill: #191919; stroke-width: 0px;"/>
  <path d="M307.97,139.2c9.3,13.35,17.86,31.98,22.97,57.92h40c-13.25-26.12-35.65-46.84-62.96-57.92Z" style="fill: #191919; stroke-width: 0px;"/>
  <path d="M153.8,197.12h40c5.1-25.94,13.66-44.57,22.96-57.92-27.31,11.08-49.71,31.8-62.96,57.92Z" style="fill: #191919; stroke-width: 0px;"/>
</svg>