<?xml version="1.0" encoding="UTF-8"?>
<svg id="_TEMPO" xmlns="http://www.w3.org/2000/svg" viewBox="0 0 500 500">
  <defs>
    <style>
      .cls-1 {
        fill: #24292f;
        fill-rule: evenodd;
        stroke-width: 0px;
      }
    </style>
  </defs>
  <path class="cls-1"
    d="M250.21,4.17C111.85,4.17,0,116.84,0,256.23c0,111.42,71.67,205.74,171.08,239.12,12.43,2.51,16.98-5.42,16.98-12.1,0-5.84-.41-25.87-.41-46.74-69.6,15.03-84.1-30.05-84.1-30.05-11.19-29.21-27.76-36.72-27.76-36.72-22.78-15.44,1.66-15.44,1.66-15.44,25.27,1.67,38.53,25.87,38.53,25.87,22.37,38.39,58.41,27.54,72.9,20.87,2.07-16.28,8.7-27.54,15.74-33.8-55.51-5.84-113.92-27.54-113.92-124.37,0-27.54,9.94-50.08,25.68-67.6-2.48-6.26-11.19-32.14,2.49-66.77,0,0,21.13-6.68,68.76,25.87,20.39-5.52,41.43-8.32,62.55-8.35,21.13,0,42.66,2.92,62.55,8.35,47.64-32.55,68.77-25.87,68.77-25.87,13.67,34.64,4.97,60.52,2.48,66.77,16.16,17.53,25.68,40.06,25.68,67.6,0,96.82-58.41,118.1-114.33,124.37,9.12,7.93,16.98,22.95,16.98,46.74,0,33.8-.41,60.93-.41,69.27,0,6.68,4.56,14.61,16.98,12.11,99.42-33.39,171.08-127.71,171.08-239.13.41-139.39-111.85-252.07-249.79-252.07Z" />
</svg>