<?xml version="1.0" encoding="UTF-8"?>
<svg id="_TEMPO" xmlns="http://www.w3.org/2000/svg" viewBox="0 0 500 500">
  <defs>
    <style>
      .cls-1 {
        fill: #000;
      }

      .cls-1, .cls-2 {
        stroke-width: 0px;
      }

      .cls-2 {
        fill: #f7df1e;
      }
    </style>
  </defs>
  <rect class="cls-2" x="0" y="0" width="500" height="500" rx="41.25" ry="41.25"/>
  <path class="cls-1" d="M335.87,390.63c10.07,16.44,23.17,28.53,46.35,28.53,19.47,0,31.9-9.73,31.9-23.17,0-16.11-12.78-21.82-34.21-31.19l-11.75-5.04c-33.9-14.44-56.43-32.54-56.43-70.79,0-35.24,26.85-62.06,68.81-62.06,29.87,0,51.35,10.4,66.83,37.62l-36.59,23.49c-8.06-14.44-16.75-20.13-30.24-20.13s-22.48,8.73-22.48,20.13c0,14.1,8.73,19.8,28.89,28.53l11.75,5.03c39.92,17.12,62.46,34.57,62.46,73.81,0,42.3-33.23,65.48-77.86,65.48s-71.83-20.79-85.62-48.05l38.18-22.18ZM169.9,394.7c7.38,13.1,14.1,24.17,30.24,24.17s25.17-6.04,25.17-29.52v-159.76h46.98v160.4c0,48.65-28.52,70.79-70.16,70.79-37.62,0-59.4-19.47-70.48-42.92l38.25-23.15Z"/>
</svg>