<?xml version="1.0" encoding="UTF-8"?>
<svg id="Calque_1" data-name="Calque 1" xmlns="http://www.w3.org/2000/svg" version="1.1" viewBox="0 0 500 500">
  <defs>
    <style>
      .cls-1 {
        fill: #99425b;
      }

      .cls-1, .cls-2 {
        stroke-width: 0px;
      }

      .cls-2 {
        fill: #fff;
      }
    </style>
  </defs>
  <path class="cls-1" d="M448,246.2c0-25.7-20.8-46.5-46.5-46.5s-3.3,0-4.9.3L460.5,11.4H188.9l63.8,188.4c-.9,0-1.9,0-2.8,0-25.7,0-46.5,20.8-46.5,46.5s13.6,38.4,32.4,44.4c-9.9,17.2-22.4,32.7-36.6,46.1-19.3,18.2-41.3,32-65.2,40.5-28.4-14.6-41.8-47.1-29.7-75.5,1.4-3.2,2.8-6.5,4.1-9.7,20.6-4.8,35.9-23.3,35.9-45.3s-20.8-46.5-46.5-46.5-46.5,20.8-46.5,46.5,7.8,29.7,19.8,38.1c-11.5,26.2-28.5,53.7-33.7,85.5-6.3,38.1,0,78.6,33,101.4,76.8,53.2,160.2-33,248-54.7,31.9-7.9,66.8-6.6,94.9-22.8,21.1-12.2,35-32.4,38.9-55.1,3.9-22.4-1.8-44.8-14.8-62.9,6.8-8.1,10.8-18.5,10.8-29.8"/>
  <path class="cls-2" d="M440.8,337c-3.4,19.7-15.6,36.9-33.4,47.3-16.6,9.6-36.5,12.5-57.6,15.5-11.3,1.6-23,3.3-34.3,6.1-30.1,7.4-59.3,21.9-87.6,36-56.5,28.1-105.3,52.3-151.3,20.4-33.7-23.4-32.1-66.6-28.2-90.2,3.6-21.9,13.5-42.1,23-61.7,1.6-3.4,3.3-6.7,4.8-10,4.7,1.9,9.7,3.2,15,3.8-9.7,32,5.5,66.7,37.5,83.1l4.4,2.2,4.6-1.6c25.3-9,48.6-23.4,69.2-42.9,13.3-12.6,24.8-26.5,34.3-41.4,2.8.4,5.7.7,8.7.7,29.3,0,53.6-21.9,57.4-50.3,12-.4,24.8-.4,36.8,0,3.8,28.3,28.1,50.3,57.4,50.3s23.6-3.8,33-10.4c6.5,13.3,8.9,28.3,6.3,43.2ZM97.7,211.3c19.4,0,35.2,15.8,35.2,35.2s-2,13.5-5.6,18.9c-5.8,9.1-15.8,15.4-27.2,16.1-.8,0-1.6,0-2.4,0-4.3,0-8.5-.8-12.3-2.2-7.7-2.9-14.2-8.5-18.3-15.5-2.9-5.1-4.6-11.1-4.6-17.4,0-19.4,15.8-35.2,35.2-35.2ZM214.7,246.2c0-17.6,13-32.3,30-34.8,1.7-.3,3.4-.4,5.2-.4,11.3,0,21.3,5.3,27.8,13.6,1.6,2.1,3,4.3,4.1,6.7,2.1,4.5,3.3,9.6,3.3,14.9s-.3,5.5-1,8.2c-3.4,14.4-15.7,25.3-30.7,26.8-1.2.1-2.4.2-3.5.2-7,0-13.6-2.1-19.1-5.6-9.7-6.3-16.1-17.2-16.1-29.5ZM361.5,204.4c-7.5,7.2-13.1,16.4-15.9,26.8-13-.5-26.8-.5-39.8,0-3-11-9.1-20.8-17.4-28.2l36.4-73.6,36.8,75ZM204.7,22.7h239.9l-56.7,167.1c-2.5.6-4.9,1.3-7.2,2.2l-56-114.2-56.1,113.5c-2.4-.8-4.9-1.5-7.5-2L204.7,22.7ZM436.7,246.2c0,3.5-.5,6.9-1.5,10.1-2.3,7.6-7.2,14.2-13.6,18.7-5.7,4-12.6,6.3-20.1,6.3-16.2,0-29.9-11.1-34-26.1-.8-2.9-1.2-6-1.2-9.1,0-4.8,1-9.4,2.7-13.6.9-2.2,2-4.2,3.3-6.1,6.3-9.3,17-15.5,29.1-15.5s2.2,0,3.3.2c17.9,1.7,31.9,16.7,31.9,35ZM459.4,246.2c0-28.3-20.4-51.9-47.2-56.9L476.4,0H173l64.3,189.7c-25.9,5.8-45.3,28.9-45.3,56.5s11,38.9,27.4,49.2c-7.9,11.8-17.3,22.8-28,33-17,16.1-36,28.2-56.4,36.2-20.6-12.9-29.3-37.3-20.3-58.6l.7-1.7c.4-1,.9-2.1,1.3-3.1,22.6-7.9,38.9-29.4,38.9-54.7s-26-57.9-57.9-57.9-57.9,26-57.9,57.9,6.6,30.7,17.3,41.2c-1.9,4.1-4,8.3-6.1,12.6-9.7,20-20.8,42.7-25,67.9-8.3,50,5.1,90.1,37.7,112.7,19.8,13.7,39.9,19.1,60.1,19.1,38.1,0,76.6-19.1,114.3-37.8,27.1-13.5,55.2-27.4,82.9-34.2,10.3-2.5,20.9-4.1,32.2-5.7,22.3-3.2,45.3-6.5,65.7-18.4,23.6-13.7,39.8-36.7,44.4-63,3.9-22.6-.8-45.3-12.3-64.5,5.4-8.8,8.5-19.1,8.5-30.1Z"/>
</svg>