<?xml version="1.0" encoding="UTF-8"?>
<svg id="_TEMPO" xmlns="http://www.w3.org/2000/svg" viewBox="0 0 500 500">
  <defs>
    <style>
      .cls-1 {
        fill: #764abc;
        stroke-width: 0px;
      }
    </style>
  </defs>
  <path class="cls-1" d="M346.45,344.17c18.45-1.91,32.45-17.82,31.81-36.91-.63-19.09-16.54-34.36-35.63-34.36h-1.27c-19.73.64-35,17.18-34.36,36.9.64,9.54,4.45,17.82,10.18,23.54-21.63,42.63-54.72,73.81-104.35,99.9-33.72,17.82-68.72,24.18-103.71,19.73-28.63-3.82-50.9-16.54-64.9-37.54-20.36-31.18-22.27-64.9-5.09-98.62,12.09-24.18,31.18-42,43.27-50.9-2.54-8.27-6.36-22.27-8.27-32.45C-18.14,300.27-8.59,390.62,19.4,433.25c21,31.82,63.63,51.54,110.71,51.54,12.72,0,25.45-1.27,38.18-4.45,81.44-15.91,143.16-64.27,178.16-136.17h0ZM458.43,265.27c-48.36-56.63-119.62-87.81-201.06-87.81h-10.18c-5.73-11.45-17.82-19.09-31.18-19.09h-1.27c-19.72.64-34.99,17.18-34.36,36.91.64,19.09,16.54,34.36,35.63,34.36h1.27c14-.64,26.09-9.54,31.18-21.63h11.45c48.36,0,94.17,14,135.53,41.36,31.81,21,54.72,48.36,67.44,81.45,10.82,26.72,10.18,52.81-1.27,75.08-17.81,33.72-47.72,52.18-87.17,52.18-25.45,0-49.63-7.64-62.36-13.36-7,6.36-19.72,16.54-28.63,22.91,27.36,12.72,55.36,19.72,82.08,19.72,61.08,0,106.26-33.72,123.44-67.45,18.45-36.91,17.18-100.54-30.54-154.62h0ZM135.21,354.99c.64,19.09,16.54,34.36,35.63,34.36h1.27c19.72-.63,34.99-17.18,34.36-36.9-.63-19.09-16.54-34.36-35.63-34.36h-1.27c-1.27,0-3.18,0-4.45.63-26.09-43.27-36.9-90.35-33.09-141.26,2.54-38.18,15.27-71.27,37.54-98.63,18.45-23.54,54.08-35,78.26-35.63,67.44-1.27,96.07,82.72,97.98,116.44,8.27,1.91,22.27,6.36,31.81,9.54-7.64-103.08-71.26-156.53-132.34-156.53-57.27,0-110.08,41.36-131.07,102.44-29.27,81.45-10.18,159.71,25.45,221.43-3.18,4.45-5.09,11.45-4.45,18.45h0Z"/>
</svg>