<?xml version="1.0" encoding="UTF-8"?>
<svg xmlns="http://www.w3.org/2000/svg" xmlns:xlink="http://www.w3.org/1999/xlink" version="1.1" viewBox="0 0 500 500">
  <defs>
    <style>
      .cls-1 {
        fill: none;
      }

      .cls-2 {
        fill: #38bdf8;
        fill-rule: evenodd;
      }

      .cls-3 {
        clip-path: url(#clippath);
      }
    </style>
    <clipPath id="clippath">
      <rect class="cls-1" x=".7" y="98.5" width="497.7" height="298.6"/>
    </clipPath>
  </defs>
  <!-- Generator: Adobe Illustrator 28.6.0, SVG Export Plug-In . SVG Version: 1.2.0 Build 709)  -->
  <g>
    <g id="Calque_1">
      <g class="cls-3">
        <path class="cls-2" d="M249.5,98.5c-66.4,0-107.8,33.2-124.4,99.5,24.9-33.2,53.9-45.6,87.1-37.3,18.9,4.7,32.5,18.5,47.4,33.7,24.4,24.8,52.6,53.4,114.3,53.4s107.8-33.2,124.4-99.5c-24.9,33.2-53.9,45.6-87.1,37.3-18.9-4.7-32.5-18.5-47.4-33.7-24.4-24.8-52.6-53.4-114.3-53.4ZM125.1,247.8c-66.4,0-107.8,33.2-124.4,99.5,24.9-33.2,53.9-45.6,87.1-37.3,18.9,4.7,32.5,18.5,47.4,33.7,24.4,24.8,52.6,53.4,114.3,53.4s107.8-33.2,124.4-99.5c-24.9,33.2-53.9,45.6-87.1,37.3-18.9-4.7-32.5-18.5-47.4-33.7-24.4-24.8-52.6-53.4-114.3-53.4Z"/>
      </g>
    </g>
  </g>
</svg>